<svg xmlns="http://www.w3.org/2000/svg" version="1.1" xmlns:xlink="http://www.w3.org/1999/xlink" xmlns:svgjs="http://svgjs.com/svgjs" width="1440" height="720" preserveAspectRatio="none" viewBox="0 0 1440 720"><g mask="url(&quot;#SvgjsMask1095&quot;)" fill="none"><rect width="1440" height="720" x="0" y="0" fill="rgba(35, 39, 42, 1)"></rect><path d="M947.407,128.028C980.837,130.175,1014.294,114.188,1030.709,84.986C1046.847,56.277,1039.494,21.753,1023.25,-6.896C1006.738,-36.017,980.857,-63.275,947.407,-61.927C915.401,-60.637,895.447,-30,881.462,-1.182C869.523,23.42,868.353,50.999,880.784,75.356C894.577,102.382,917.127,126.083,947.407,128.028" fill="rgba(63, 81, 181, 0.4)" class="triangle-float3"></path><path d="M529.446,887.65C591.43,887.196,648.082,857.091,682.169,805.319C720.444,747.187,742.368,674.486,710.554,612.581C676.413,546.148,604.121,506.569,529.446,508.141C457.258,509.661,394.552,555.96,361.083,619.939C329.948,679.456,337.042,750.724,372.801,807.583C406.261,860.787,466.597,888.11,529.446,887.65" fill="rgba(63, 81, 181, 0.4)" class="triangle-float1"></path><path d="M202.269,244.352C244.062,242.093,283.976,225.894,306.304,190.493C330.248,152.53,334.837,105.58,315.275,65.184C292.826,18.828,253.775,-24.281,202.269,-24.337C150.698,-24.393,113.772,19.797,88.835,64.938C64.909,108.249,50.295,161.082,76.737,202.904C101.976,242.824,155.108,246.902,202.269,244.352" fill="rgba(63, 81, 181, 0.4)" class="triangle-float2"></path><path d="M324.523,329.218C360.936,328.037,386.418,296.997,403.658,264.902C419.78,234.888,425.462,200.21,410.177,169.761C393.182,135.904,362.406,107.296,324.523,107.256C286.588,107.216,256.657,136.242,238.555,169.58C221.372,201.226,218.898,238.634,235.972,270.339C253.985,303.789,286.551,330.449,324.523,329.218" fill="rgba(63, 81, 181, 0.4)" class="triangle-float3"></path><path d="M470.973,321.976C538.174,321.356,607.576,303.579,643.358,246.693C681.254,186.448,680.647,108.272,643.638,47.478C607.97,-11.112,539.356,-41.844,470.973,-36.48C410.448,-31.732,371.659,19.761,339.614,71.326C304.806,127.337,262.377,191.515,292.988,249.926C324.831,310.687,402.376,322.609,470.973,321.976" fill="rgba(63, 81, 181, 0.4)" class="triangle-float1"></path></g><defs><mask id="SvgjsMask1095"><rect width="1440" height="720" fill="#ffffff"></rect></mask><style>
            @keyframes float1 {
                0%{transform: translate(0, 0)}
                50%{transform: translate(-10px, 0)}
                100%{transform: translate(0, 0)}
            }

            .triangle-float1 {
                animation: float1 5s infinite;
            }

            @keyframes float2 {
                0%{transform: translate(0, 0)}
                50%{transform: translate(-5px, -5px)}
                100%{transform: translate(0, 0)}
            }

            .triangle-float2 {
                animation: float2 4s infinite;
            }

            @keyframes float3 {
                0%{transform: translate(0, 0)}
                50%{transform: translate(0, -10px)}
                100%{transform: translate(0, 0)}
            }

            .triangle-float3 {
                animation: float3 6s infinite;
            }
        </style></defs></svg>